<?xml version="1.0" encoding="UTF-8" standalone="no"?>
<svg width="800px" height="800px" viewBox="0 0 32 32" version="1.1" xmlns="http://www.w3.org/2000/svg">
  <title>WhatsApp</title>
  <path fill="#FFFFFF" d="M16 0C7.163 0 0 7.163 0 16c0 3.226 0.94 6.231 2.557 8.758L0.529 32l7.45-1.961C10.355 31.32 13.105 32 16 32c8.837 0 16-7.163 16-16S24.837 0 16 0z"/>
  <path fill="#25D366" d="M16 1.5C8.004 1.5 1.5 8.004 1.5 16c0 2.94 0.871 5.678 2.367 7.971l-1.564 5.715 5.866-1.541C10.396 29.057 13.106 29.75 16 29.75c7.996 0 14.5-6.504 14.5-14.5S23.996 1.5 16 1.5z"/>
  <path fill="#FFFFFF" d="M23.301 19.302c-0.357-0.179-2.111-1.042-2.438-1.161-0.327-0.119-0.566-0.179-0.804 0.179-0.238 0.357-0.923 1.161-1.131 1.399-0.208 0.238-0.417 0.268-0.774 0.089-0.357-0.179-1.51-0.557-2.876-1.776-1.063-0.948-1.781-2.119-1.99-2.476-0.208-0.357-0.022-0.551 0.149-0.730 0.149-0.149 0.327-0.387 0.49-0.581 0.163-0.193 0.218-0.327 0.327-0.551 0.109-0.223 0.054-0.417-0.030-0.581-0.084-0.163-0.760-1.834-1.042-2.512-0.282-0.677-0.566-0.581-0.774-0.581-0.208 0-0.446-0.022-0.685-0.022-0.238 0-0.625 0.089-0.952 0.446-0.327 0.357-1.250 1.220-1.250 2.967 0 1.747 1.280 3.438 1.458 3.677 0.179 0.238 2.453 3.736 5.948 5.087 3.495 1.351 3.495 0.900 4.126 0.843 0.631-0.057 2.111-0.863 2.408-1.696 0.298-0.834 0.298-1.546 0.208-1.696-0.089-0.149-0.327-0.238-0.685-0.417z"/>
</svg>